<svg id="SvgjsSvg1098" width="288" height="288" xmlns="http://www.w3.org/2000/svg" version="1.1" xmlns:xlink="http://www.w3.org/1999/xlink" xmlns:svgjs="http://svgjs.com/svgjs"><defs id="SvgjsDefs1099"></defs><g id="SvgjsG1100"><svg xmlns="http://www.w3.org/2000/svg" id="Layer_1" x="0" y="0" version="1.1" viewBox="0 0 29 29" xml:space="preserve" width="288" height="288"><path d="M11.429 2.829a2 2 0 0 0-1.883 1.997V20.94H6.029c-1.657 0-3.237 1.343-3.529 3-.292 1.657.814 3 2.471 3h3c1.657 0 3.237-1.343 3.529-3 .03-.17.036-.335.038-.498l.009-.002V9.866a1 1 0 0 1 .923-.997l11-.846a1 1 0 0 1 1.077.997v8.92h-3.518c-1.657 0-3.237 1.343-3.529 3-.292 1.657.814 3 2.471 3h3c1.657 0 3.237-1.343 3.529-3 .03-.17.036-.335.038-.498l.009-.002V4.061a2 2 0 0 0-2.117-1.997l-13.001.765z" fill="#ff0289" class="color000 svgShape"></path></svg></g></svg>