<svg id="SvgjsSvg1232" width="288" height="288" xmlns="http://www.w3.org/2000/svg" version="1.1" xmlns:xlink="http://www.w3.org/1999/xlink" xmlns:svgjs="http://svgjs.com/svgjs"><defs id="SvgjsDefs1233"></defs><g id="SvgjsG1234"><svg xmlns="http://www.w3.org/2000/svg" enable-background="new 0 0 32 32" viewBox="0 0 32 32" width="288" height="288"><path fill="#f27224" d="M26,32H6c-3.314,0-6-2.686-6-6V6c0-3.314,2.686-6,6-6h20c3.314,0,6,2.686,6,6v20C32,29.314,29.314,32,26,32z" class="colorFFF9DD svgShape"></path><polygon fill="#ffffff" points="22 18.541 22 18.542 22 18.542" class="colorFFE777 svgShape"></polygon><path fill="#ffffff" d="M9.166,23.09V24c5.289-0.169,8.92-0.154,13.115,0c0.062-0.786,0.489-4.327,0.552-4.714h-0.792c-1.146,2.67-1.25,3.563-3.515,3.563H15.35c-1.068,0-1.575-0.437-1.575-1.366v-4.965c2.367,0,3.132,0.072,3.132,0.072c1.084,0.017,1.08,0.765,1.406,2.197h0.917c-0.077-3.515-0.095-2.104,0.062-5.723h-0.916c-0.469,2.027-0.391,2.296-1.45,2.331c0,0-1.085,0.107-3.15,0.089V9.634c0-0.223,0.018-0.348,0.383-0.348h4.876c1.281,0,1.555,1.702,1.948,3.232h0.828c0,0,0.151-3.152,0.276-4.518c-3.811,0.44-10.291,0.219-12.92,0.134v0.91c1.739,0.33,2.134,0.27,2.171,1.286c0.125,2.781,0.064,8.917,0,11.5C11.324,22.803,10.784,22.77,9.166,23.09z" class="colorFFD200 svgShape"></path></svg></g></svg>