<svg xmlns="http://www.w3.org/2000/svg" id="Layer_1" x="0" y="0" version="1.1" viewBox="0 0 29 29" xml:space="preserve"><path fill="none" stroke="#000" stroke-miterlimit="10" stroke-width="2" d="M15.01 8.49a8.5 8.5 0 010 12.02M17.839 5.661C20.182 8.004 21.5 11.186 21.5 14.5s-1.318 6.496-3.661 8.839"/><path fill="none" stroke="#000" stroke-miterlimit="10" stroke-width="2" d="M20.667 2.833C23.76 5.926 25.5 10.126 25.5 14.5s-1.74 8.574-4.833 11.667"/><path d="M9 9a5.5 5.5 0 1 0 0 11A5.5 5.5 0 1 0 9 9zm2.5 6.5H10V17a1 1 0 1 1-2 0v-1.5H6.5a1 1 0 1 1 0-2H8V12a1 1 0 1 1 2 0v1.5h1.5a1 1 0 1 1 0 2z"/></svg>