<?xml version="1.0" encoding="UTF-8"?>
<svg xmlns="http://www.w3.org/2000/svg" xmlns:xlink="http://www.w3.org/1999/xlink" viewBox="0 0 144 144" width="144px" height="144px">
<g id="surface36073">
<path style=" stroke:none;fill-rule:evenodd;fill:rgb(12.941177%,12.941177%,12.941177%);fill-opacity:1;" d="M 20.925781 1.800781 L 123.070312 1.800781 C 133.636719 1.800781 142.199219 10.363281 142.199219 20.925781 L 142.199219 123.070312 C 142.199219 133.636719 133.636719 142.199219 123.074219 142.199219 L 20.925781 142.199219 C 10.363281 142.199219 1.800781 133.636719 1.800781 123.074219 L 1.800781 20.925781 C 1.800781 10.363281 10.363281 1.800781 20.925781 1.800781 Z M 20.925781 1.800781 "/>
<path style=" stroke:none;fill-rule:evenodd;fill:rgb(92.54902%,25.098041%,47.843137%);fill-opacity:1;" d="M 92.3125 58.765625 C 98.457031 63.160156 105.988281 65.742188 114.121094 65.742188 L 114.121094 50.097656 C 112.578125 50.097656 111.046875 49.9375 109.542969 49.617188 L 109.542969 61.929688 C 101.410156 61.929688 93.882812 59.34375 87.734375 54.957031 L 87.734375 86.875 C 87.734375 102.839844 74.78125 115.785156 58.804688 115.785156 C 52.847656 115.785156 47.304688 113.984375 42.703125 110.894531 C 47.957031 116.261719 55.28125 119.589844 63.386719 119.589844 C 79.359375 119.589844 92.3125 106.648438 92.3125 90.679688 Z M 97.960938 42.988281 C 94.824219 39.558594 92.757812 35.125 92.3125 30.222656 L 92.3125 28.210938 L 87.96875 28.210938 C 89.0625 34.4375 92.789062 39.761719 97.960938 42.988281 Z M 52.808594 98.644531 C 51.054688 96.34375 50.105469 93.53125 50.109375 90.636719 C 50.109375 83.332031 56.035156 77.414062 63.34375 77.414062 C 64.703125 77.414062 66.054688 77.621094 67.355469 78.035156 L 67.355469 62.042969 C 65.839844 61.835938 64.308594 61.746094 62.777344 61.777344 L 62.777344 74.222656 C 61.476562 73.808594 60.125 73.601562 58.757812 73.601562 C 51.449219 73.601562 45.527344 79.523438 45.527344 86.828125 C 45.53125 91.996094 48.492188 96.46875 52.808594 98.644531 Z M 52.808594 98.644531 "/>
<path style=" stroke:none;fill-rule:evenodd;fill:rgb(100%,100%,100%);fill-opacity:1;" d="M 87.734375 54.957031 C 93.878906 59.347656 101.410156 61.929688 109.542969 61.929688 L 109.542969 49.617188 C 105 48.652344 100.984375 46.28125 97.960938 42.984375 C 92.789062 39.757812 89.066406 34.4375 87.972656 28.210938 L 76.574219 28.210938 L 76.574219 90.679688 C 76.546875 97.960938 70.636719 103.859375 63.34375 103.859375 C 59.042969 103.859375 55.226562 101.8125 52.808594 98.640625 C 48.492188 96.464844 45.53125 91.992188 45.53125 86.828125 C 45.53125 79.523438 51.453125 73.601562 58.761719 73.601562 C 60.164062 73.601562 61.511719 73.820312 62.78125 74.222656 L 62.78125 61.78125 C 47.085938 62.105469 34.464844 74.921875 34.464844 90.683594 C 34.464844 98.554688 37.609375 105.6875 42.710938 110.898438 C 47.3125 113.988281 52.855469 115.789062 58.8125 115.789062 C 74.789062 115.789062 87.742188 102.84375 87.742188 86.878906 Z M 87.734375 54.957031 "/>
<path style=" stroke:none;fill-rule:evenodd;fill:rgb(50.588238%,83.137256%,98.039216%);fill-opacity:1;" d="M 109.542969 49.621094 L 109.542969 46.292969 C 105.445312 46.300781 101.4375 45.152344 97.960938 42.984375 C 101.035156 46.351562 105.082031 48.671875 109.542969 49.621094 Z M 87.96875 28.210938 C 87.863281 27.613281 87.789062 27.015625 87.734375 26.414062 L 87.734375 24.402344 L 71.992188 24.402344 L 71.992188 86.875 C 71.96875 94.15625 66.050781 100.050781 58.757812 100.050781 C 56.617188 100.050781 54.597656 99.546875 52.808594 98.640625 C 55.226562 101.8125 59.042969 103.859375 63.34375 103.859375 C 70.636719 103.859375 76.546875 97.960938 76.574219 90.679688 L 76.574219 28.210938 Z M 62.777344 61.78125 L 62.777344 58.238281 C 61.460938 58.058594 60.136719 57.96875 58.804688 57.96875 C 42.828125 57.96875 29.878906 70.910156 29.878906 86.878906 C 29.878906 96.890625 34.96875 105.710938 42.703125 110.898438 C 37.601562 105.6875 34.457031 98.554688 34.457031 90.683594 C 34.457031 74.921875 47.082031 62.105469 62.777344 61.78125 Z M 62.777344 61.78125 "/>
</g>
</svg>
