<svg xmlns="http://www.w3.org/2000/svg" width="655.359" height="655.359" fill-rule="evenodd" clip-rule="evenodd" image-rendering="optimizeQuality" shape-rendering="geometricPrecision" text-rendering="geometricPrecision" viewBox="0 0 6.827 6.827"><rect width="6.827" height="6.827" fill="#3949ab" rx="1.456" ry="1.456"/><path fill="#f4f4f4" d="M3.62623 2.28306l0 -0.869732 -0.56137 0c-0.15872,0.398043 -0.188213,0.912331 -0.785185,0.869732l0 0.701213 0.412319 0c0.00679134,0.986402 0.00679134,1.49505 0.00679134,1.52071 0,0.427677 0.266354,0.744303 0.676303,0.843776 0.160685,0.0445039 0.334252,0.0645669 0.508724,0.0645669 0.224882,-0.00707874 0.444201,-0.0456693 0.663173,-0.115858l0 -0.825165c-0.127984,0.0388976 -0.244661,0.0712913 -0.347835,0.103094 -0.199197,0.0583661 -0.366937,0.0197756 -0.502713,-0.109004 -0.0682874,-0.103996 -0.0696181,-0.264906 -0.0696181,-0.386713l0 -1.0957 0.894476 0 0 -0.700925 -0.895067 0z"/></svg>