<svg id="SvgjsSvg1176" width="288" height="288" xmlns="http://www.w3.org/2000/svg" version="1.1" xmlns:xlink="http://www.w3.org/1999/xlink" xmlns:svgjs="http://svgjs.com/svgjs"><defs id="SvgjsDefs1177"></defs><g id="SvgjsG1178"><svg xmlns="http://www.w3.org/2000/svg" data-name="Layer 2" viewBox="0 0 100 100" width="288" height="288"><path d="M66,27a2,2,0,1,1-2-2A2,2,0,0,1,66,27ZM36,75a2,2,0,1,0-2-2A2,2,0,0,0,36,75Zm8.21-20.11a2,2,0,0,0,3.58,0L50,50.47l2.21,4.42a2,2,0,0,0,3.58,0l4-8a2,2,0,0,0-3.58-1.78L54,49.53l-2.21-4.42a2,2,0,0,0-3.58,0L46,49.53l-2.21-4.42a2,2,0,1,0-3.58,1.78Zm22,0a2,2,0,0,0,3.58,0L72,50.47l2.21,4.42a2,2,0,0,0,3.58,0l4-8a2,2,0,0,0-3.58-1.78L76,49.53l-2.21-4.42a2,2,0,0,0-3.58,0L68,49.53l-2.21-4.42a2,2,0,0,0-3.58,1.78Zm-44,0a2,2,0,0,0,3.58,0L28,50.47l2.21,4.42a2,2,0,0,0,3.58,0l4-8a2,2,0,1,0-3.58-1.78L32,49.53l-2.21-4.42a2,2,0,0,0-3.58,0L24,49.53l-2.21-4.42a2,2,0,1,0-3.58,1.78ZM92,38V62a2,2,0,0,1-2,2H87.48a40,40,0,0,1-74.95,0H10a2,2,0,0,1-2-2V38a2,2,0,0,1,2-2h2.52A40,40,0,0,1,75.76,19.4l.1.1A39.82,39.82,0,0,1,87.47,36H90A2,2,0,0,1,92,38ZM74.49,23.62a40,40,0,0,1-4.07,2.78,2,2,0,0,1-1,.28,2,2,0,0,1-1-3.72c1-.6,2-1.26,2.94-2a36.09,36.09,0,0,0-11-5.5,28.88,28.88,0,0,1,3.43,5.12,2,2,0,1,1-3.52,1.88C57.79,18,54.94,15.2,52,14.31V27.94a36.68,36.68,0,0,0,6-.83A2,2,0,0,1,58.9,31a39.9,39.9,0,0,1-6.9.93V36H64.7c-.19-.94-.38-1.87-.6-2.77A2,2,0,1,1,68,32.29c.29,1.2.54,2.45.77,3.71H83.17A35.91,35.91,0,0,0,74.49,23.62ZM38.2,26A36.19,36.19,0,0,0,48,27.94V14.31C44.26,15.45,40.76,19.71,38.2,26Zm1.46-10.45A36.05,36.05,0,0,0,28.71,21a35.93,35.93,0,0,0,5.77,3.45A32.75,32.75,0,0,1,39.66,15.55Zm-2.8,14.22A57.84,57.84,0,0,0,35.3,36H48V32A40.39,40.39,0,0,1,36.86,29.77ZM16.85,36H31.23a64,64,0,0,1,1.89-7.74,39.89,39.89,0,0,1-7.59-4.62A35.83,35.83,0,0,0,16.85,36ZM25.5,76.38a40.18,40.18,0,0,1,4.08-2.78,2,2,0,1,1,2,3.44c-1,.6-2,1.26-2.94,2a36.09,36.09,0,0,0,11,5.5,28.51,28.51,0,0,1-3.43-5.12,2,2,0,1,1,3.52-1.88C42.21,82,45.06,84.8,48,85.69V72.06a36.68,36.68,0,0,0-6,.83A2,2,0,0,1,41.1,69a39.9,39.9,0,0,1,6.9-.93V64H35.3c.19.94.38,1.87.6,2.77a2,2,0,0,1-1.48,2.42,2.42,2.42,0,0,1-.47,0A2,2,0,0,1,32,67.71c-.29-1.2-.54-2.45-.77-3.71H16.83A36,36,0,0,0,25.5,76.38ZM61.79,74A36.12,36.12,0,0,0,52,72.06V85.67C55.73,84.52,59.23,80.28,61.79,74ZM60.32,84.46a36.18,36.18,0,0,0,11-5.48,36,36,0,0,0-5.77-3.46A33.16,33.16,0,0,1,60.32,84.46Zm2.82-14.23A60.33,60.33,0,0,0,64.69,64H52v4A40.54,40.54,0,0,1,63.14,70.23Zm20-6.23H68.77a64,64,0,0,1-1.89,7.74,39.38,39.38,0,0,1,7.59,4.62A35.83,35.83,0,0,0,83.15,64ZM88,40H12V60H88Z" fill="#2d6cdf" class="color000 svgShape"></path></svg></g></svg>