<svg id="SvgjsSvg1311" width="288" height="288" xmlns="http://www.w3.org/2000/svg" version="1.1" xmlns:xlink="http://www.w3.org/1999/xlink" xmlns:svgjs="http://svgjs.com/svgjs"><defs id="SvgjsDefs1312"></defs><g id="SvgjsG1313"><svg xmlns="http://www.w3.org/2000/svg" width="288" height="288" viewBox="0 0 64 64"><g fill="#000000" class="colorF93838 svgShape"><path d="M25.266 40.473c1.024-.262 1.715-1.222 1.784-2.447.064-1.253-.574-2.364-1.626-2.764l-2.905-1.202c-9.949-4.169-10.394-4.333-10.896-4.339-.769-.029-1.454.363-1.926 1.116-1 1.631-1.423 6.768-1.079 10.177.123 1.125.324 2.063.614 2.624.399.772 1.074 1.235 1.844 1.26.493.028.798-.058 10.057-3.083 0-.001 4.113-1.333 4.133-1.342zM30.454 44.326c-1.149-.448-2.385-.17-3.079.711l-2.037 2.448c-6.975 8.316-7.26 8.7-7.432 9.193-.103.294-.146.6-.109.908.042.438.235.876.562 1.28 1.615 1.955 9.367 4.853 11.842 4.423.862-.161 1.486-.652 1.754-1.388.16-.472.18-.799.206-10.682l.025-4.412c.066-1.067-.613-2.04-1.732-2.481zM39.818 35.879s-.043.074-.056.09c.52-.202 1.446-.431 3.136-.838 10.514-2.587 10.92-2.727 11.336-3.002.635-.433.954-1.164.9-2.053 0-.03.004-.057 0-.09-.27-2.62-4.796-9.446-7.024-10.554-.79-.385-1.58-.357-2.232.086-.405.271-.707.676-6.336 8.498 0 0-2.546 3.522-2.576 3.556-.672.827-.677 2.017-.025 3.035.679 1.055 1.827 1.567 2.877 1.272zM30.758 2.348c-.216-.789-.822-1.355-1.699-1.58C26.376.09 16.12 3.014 14.216 5.008c-.607.646-.836 1.445-.653 2.147.298.627 13.011 20.945 13.011 20.945 1.882 3.096 3.414 2.617 3.915 2.458.499-.158 2.022-.639 1.85-4.25-.181-4.229-1.433-23.085-1.581-23.96zM44.779 42.763s-4.058-1.362-4.111-1.388c-.979-.386-2.104-.032-2.857.919-.78.969-.902 2.244-.277 3.213l1.634 2.7c5.495 9.065 5.913 9.705 6.311 10.02.61.489 1.386.57 2.197.236 2.336-.945 7.436-7.535 7.797-10.071.122-.881-.149-1.643-.748-2.126-.393-.301-.697-.418-9.946-3.503z" fill="#cc2414" class="color000 svgShape"></path></g><g fill="#000000" class="colorCC2414 svgShape"><path d="M25.266 40.473c1.024-.262 1.715-1.222 1.784-2.447.064-1.253-.574-2.364-1.626-2.764l-2.905-1.202c-9.949-4.169-8.852-1.206-9.353-1.21-.769-.031-1.454.361-1.927 1.115-1.001 1.631-2.965 3.641-2.621 7.05.123 1.125.324 2.063.614 2.624.399.772 1.074 1.235 1.844 1.26.493.028.798-.058 10.057-3.083 0-.002 4.113-1.334 4.133-1.343zM30.454 44.326c-1.149-.448-1.545 2.205-2.239 3.088 0 0-2.028 2.448-2.035 2.448-6.976 8.315-8.102 6.324-8.273 6.816-.103.294-.146.6-.109.908.042.438.235.876.562 1.28 1.615 1.955 9.367 4.853 11.842 4.423.862-.161 1.486-.652 1.754-1.388.16-.472.18-.799.206-10.682l.025-4.412c.065-1.067-.614-2.04-1.733-2.481zM39.818 35.879s-.043.074-.056.09c.52-.202 1.446-.431 3.136-.838 10.514-2.587 10.92-2.727 11.336-3.002.635-.433.954-1.164.9-2.053 0-.03.004-.057 0-.09-.27-2.62-3.524-6.475-5.753-7.583-.789-.385-1.581-.357-2.231.086-.407.271-1.979-2.295-7.608 5.527 0 0-2.546 3.522-2.576 3.556-.672.827-.677 2.017-.025 3.035.679 1.055 1.827 1.567 2.877 1.272zM30.758 2.348c-.216-.789-.822-1.355-1.699-1.58-2.683-.678-7.626 3.296-9.527 5.291-.609.646-.838 1.445-.655 2.147.298.627 7.697 19.895 7.697 19.895 1.882 3.096 3.414 2.617 3.915 2.458.499-.158 2.022-.639 1.85-4.25-.181-4.23-1.433-23.086-1.581-23.961zM44.779 42.763s-2.518-.517-2.571-.543c-.981-.385-2.104-.032-2.857.919-.78.971-.902 2.244-.277 3.214l.094 1.854c5.495 9.065 5.913 9.705 6.311 10.02.61.489 1.386.57 2.197.236 2.336-.945 7.436-7.535 7.797-10.071.122-.881-.149-1.643-.748-2.126-.393-.301-.697-.418-9.946-3.503z" fill="#cc2414" class="color000 svgShape"></path></g></svg></g></svg>